<?xml version="1.0" encoding="utf-8" ?>
<svg xmlns="http://www.w3.org/2000/svg" xmlns:xlink="http://www.w3.org/1999/xlink" width="48" height="48" viewBox="0 0 48 48">
	<defs>
		<clipPath id="clipPath1946919734">
			<path d="M0 0L48 0L48 48L0 48L0 0Z" fill-rule="nonzero" transform="matrix(1 0 0 1 -0 -0)"/>
		</clipPath>
	</defs>
	<g clip-path="url(#clipPath1946919734)">
		<path d="M6.71266 24.1232L6.71266 10.6372C6.71266 9.80883 6.04108 9.13725 5.21266 9.13725C4.38424 9.13725 3.71266 9.80883 3.71266 10.6372L3.71266 24.1232Q3.74685 26.3001 5.28155 27.8107Q6.81624 29.3213 8.96969 29.3213Q11.1231 29.3213 12.6578 27.8107Q14.1925 26.3001 14.2265 24.1469L14.2389 6.44766Q14.2787 3.17747 11.9681 0.838733Q9.65759 -1.5 6.37 -1.5Q3.08241 -1.5 0.771871 0.838734Q-1.53867 3.17747 -1.49879 6.46482L-1.4989 24.2422Q-1.56207 28.5947 1.50877 31.7103Q4.57962 34.8259 8.95422 34.8259Q13.3288 34.8259 16.3997 31.7103Q19.4705 28.5947 19.4072 24.2205L19.4073 7.61287C19.4073 6.78445 18.7358 6.11287 17.9073 6.11287C17.0789 6.11287 16.4073 6.78445 16.4073 7.61287L16.4075 24.264Q16.4527 27.3829 14.263 29.6044Q12.0734 31.8259 8.95422 31.8259Q5.83499 31.8259 3.64539 29.6044Q1.45579 27.3829 1.5011 24.2422L1.50099 6.42843Q1.47631 4.3943 2.90602 2.94715Q4.33572 1.5 6.37 1.5Q8.40428 1.5 9.83399 2.94715Q11.2637 4.3943 11.2389 6.44559L11.2269 24.0995Q11.2123 25.024 10.5533 25.6727Q9.89434 26.3213 8.96969 26.3213Q8.04502 26.3213 7.38605 25.6727Q6.72707 25.024 6.71266 24.1232Z" fill-rule="evenodd" transform="matrix(1 0 0 1 15.0448 7.36275)" fill="rgb(156, 163, 175)"/>
	</g>
</svg>
