<?xml version="1.0" encoding="utf-8" ?>
<svg xmlns="http://www.w3.org/2000/svg" xmlns:xlink="http://www.w3.org/1999/xlink" width="14" height="16" viewBox="0 0 14 16">
	<path d="M13.5 1.00001L9.75 1.00001L9.45625 0.415631C9.39279 0.288216 9.30053 0.187066 9.17948 0.112181C9.05842 0.0372954 8.92672 -9.61381e-05 8.78438 5.92188e-06L5.2125 5.92188e-06C5.07042 -0.00054019 4.93905 0.0366852 4.81838 0.111682C4.69771 0.186679 4.60616 0.287995 4.54375 0.415631L4.25 1.00001L0.5 1.00001C0.361929 1.00001 0.244078 1.04882 0.146447 1.14645C0.0488155 1.24408 0 1.36193 0 1.50001L0 2.50001C0 2.63808 0.0488155 2.75593 0.146447 2.85356C0.244078 2.95119 0.361929 3.00001 0.5 3.00001L13.5 3.00001C13.6381 3.00001 13.7559 2.95119 13.8536 2.85356C13.9512 2.75593 14 2.63808 14 2.50001L14 1.50001C14 1.36193 13.9512 1.24408 13.8536 1.14645C13.7559 1.04882 13.6381 1.00001 13.5 1.00001ZM1.6625 14.5938C1.68725 14.989 1.84392 15.3221 2.13252 15.5932C2.42111 15.8644 2.7634 16 3.15938 16L10.8406 16C11.2366 16 11.5789 15.8644 11.8675 15.5932C12.1561 15.3221 12.3128 14.989 12.3375 14.5938L13 4.00001L1 4.00001L1.6625 14.5938Z" fill-rule="nonzero" transform="matrix(1 0 0 1 0 -5.92188e-06)" fill="rgb(29, 78, 216)"/>
</svg>
