<?xml version="1.0" encoding="utf-8" ?>
<svg xmlns="http://www.w3.org/2000/svg" xmlns:xlink="http://www.w3.org/1999/xlink" width="32" height="32" viewBox="0 0 32 32">
	<defs>
		<clipPath id="clipPath8520054822">
			<path d="M0 0L32 0L32 32L0 32L0 0Z" fill-rule="nonzero" transform="matrix(1 0 0 1 0 0)"/>
		</clipPath>
	</defs>
	<g clip-path="url(#clipPath8520054822)">
		<path d="M8.86588 -0.981721C9.40807 -1.60807 10.3554 -1.6763 10.9817 -1.13412C11.6081 -0.591933 11.6763 0.355371 11.1341 0.981721L4.20912 8.98172Q4.16089 9.03744 4.10743 9.08816Q4.05397 9.13888 3.9958 9.18411Q3.93763 9.22935 3.8753 9.26867Q3.81298 9.30798 3.7471 9.341Q3.68122 9.37402 3.61242 9.40042Q3.54362 9.42682 3.47257 9.44635Q3.40152 9.46589 3.32889 9.47836Q3.25626 9.49083 3.18276 9.49612Q3.10926 9.50142 3.0356 9.49948Q2.96193 9.49755 2.88881 9.4884Q2.81569 9.47925 2.74382 9.46298Q2.67195 9.44671 2.60202 9.42348Q2.53209 9.40024 2.46477 9.37026Q2.39745 9.34028 2.3334 9.30385Q2.26934 9.26742 2.20917 9.22488Q2.14899 9.18235 2.09328 9.13412Q2.05832 9.10385 2.02528 9.07149L-1.04972 6.05899C-1.64148 5.47926 -1.65123 4.52955 -1.07149 3.93779C-0.491757 3.34602 0.457951 3.33627 1.04972 3.91601L2.98506 5.81201L8.86588 -0.981721Z" fill-rule="evenodd" transform="matrix(1 0 0 1 11 11)" fill="rgb(29, 78, 216)"/>
		<path d="M25.6789 5.49956Q23.4798 5.10509 21.9399 4.75452Q20.2677 4.37383 18.8204 3.92168Q17.3888 3.47442 15.8071 2.84129Q14.3969 2.27677 12.3826 1.36705L12.9999 0L13.6173 1.36705Q11.603 2.27677 10.1928 2.84129Q8.61114 3.47442 7.17951 3.92168Q5.73221 4.37383 4.06002 4.75452Q2.52014 5.10509 0.321035 5.49956L0.0561955 4.02313L1.55322 4.11758Q1.22495 9.32036 2.9125 13.625Q4.26975 17.0871 6.87855 19.855Q8.798 21.8915 11.2158 23.3822Q12.5352 24.1958 13.5603 24.6086L12.9999 26L12.4396 24.6086Q13.4647 24.1958 14.7841 23.3822Q17.2019 21.8915 19.1213 19.855Q21.7301 17.0871 23.0874 13.625Q24.7749 9.32038 24.4467 4.11758L25.9437 4.02313L25.6789 5.49956ZM26.2085 2.54669Q26.3316 2.56876 26.4493 2.61089Q26.567 2.65302 26.676 2.71406Q26.7851 2.77509 26.8826 2.85333Q26.9801 2.93158 27.0633 3.02488Q27.1465 3.11818 27.2131 3.22397Q27.2797 3.32975 27.3279 3.4451Q27.376 3.56045 27.4044 3.68218Q27.4328 3.80392 27.4407 3.92867Q27.8109 9.7957 25.8804 14.7199Q24.3113 18.7224 21.3045 21.9126Q19.1134 24.2373 16.3586 25.9359Q14.822 26.8833 13.5603 27.3914Q13.4267 27.4452 13.2853 27.4726Q13.144 27.5 12.9999 27.5Q12.8559 27.5 12.7146 27.4726Q12.5732 27.4452 12.4396 27.3914Q11.1779 26.8833 9.64128 25.9359Q6.88645 24.2373 4.69541 21.9126Q1.68854 18.7224 0.119461 14.72Q-1.811 9.79569 -1.44083 3.92867Q-1.43296 3.80392 -1.40454 3.68218Q-1.37613 3.56045 -1.32796 3.4451Q-1.27979 3.32975 -1.21319 3.22397Q-1.1466 3.11818 -1.06341 3.02488Q-0.980218 2.93158 -0.882732 2.85333Q-0.785247 2.77509 -0.676155 2.71406Q-0.567063 2.65302 -0.449374 2.61089Q-0.331684 2.56876 -0.208645 2.54669Q1.922 2.1645 3.39408 1.82937Q4.95073 1.47498 6.28492 1.05817Q7.60487 0.645798 9.07785 0.0561529Q10.4276 -0.484151 12.3826 -1.36705Q12.5281 -1.43277 12.6842 -1.46639Q12.8403 -1.5 12.9999 -1.5Q13.1596 -1.5 13.3157 -1.46639Q13.4718 -1.43277 13.6173 -1.36705Q15.5723 -0.48415 16.922 0.0561527Q18.395 0.645797 19.715 1.05817Q21.0492 1.47498 22.6058 1.82937Q24.0779 2.1645 26.2085 2.54669Z" fill-rule="nonzero" transform="matrix(1 0 0 1 3.00006 3)" fill="rgb(29, 78, 216)"/>
	</g>
</svg>
