<?xml version="1.0" encoding="utf-8" ?>
<svg xmlns="http://www.w3.org/2000/svg" xmlns:xlink="http://www.w3.org/1999/xlink" width="48" height="72" viewBox="0 0 48 72">
	<defs>
		<clipPath id="clipPath4997643917">
			<path d="M0 0L48 0L48 48L0 48L0 0Z" fill-rule="nonzero" transform="matrix(1 0 0 1 0 0)"/>
		</clipPath>
	</defs>
	<g clip-path="url(#clipPath4997643917)">
		<defs>
			<clipPath id="clipPath2821269007">
				<path d="M0 0L48 0L48 48L0 48L0 0Z" fill-rule="nonzero" transform="matrix(1 0 0 1 -0 -0)"/>
			</clipPath>
		</defs>
		<g clip-path="url(#clipPath2821269007)">
			<path d="M12 -1.5Q20.0772 -1.5 25.7886 4.21142Q31.5 9.92284 31.5 18L31.5 36.75Q31.5 37.5118 31.2045 38.2101Q30.9197 38.8832 30.4014 39.4014Q29.8832 39.9197 29.2101 40.2045Q28.5118 40.5 27.75 40.5L2.25 40.5Q1.48816 40.5 0.789868 40.2045Q0.116832 39.9197 -0.40141 39.4014Q-0.91966 38.8832 -1.20448 38.2101Q-1.5 37.5118 -1.5 36.75L-1.5 2.25Q-1.5 1.48816 -1.20448 0.789867Q-0.919662 0.116841 -0.40141 -0.40141Q0.116842 -0.919662 0.789868 -1.20448Q1.48816 -1.5 2.25 -1.5L12 -1.5ZM11.25 1.5L2.25 1.5Q1.93982 1.5 1.71991 1.71991Q1.5 1.93982 1.5 2.25L1.5 36.75Q1.5 37.0602 1.71991 37.2801Q1.93982 37.5 2.25 37.5L27.75 37.5Q28.0602 37.5 28.2801 37.2801Q28.5 37.0602 28.5 36.75L28.5 18.75Q28.5 16.5754 26.9623 15.0377Q25.4246 13.5 23.25 13.5L20.25 13.5Q18.6967 13.5 17.5983 12.4016Q16.5 11.3033 16.5 9.75L16.5 6.75Q16.5 4.57538 14.9623 3.03769Q13.4246 1.5 11.25 1.5ZM27.2186 11.4922Q25.4398 10.5 23.25 10.5L20.25 10.5Q19.9393 10.5 19.7197 10.2803Q19.5 10.0607 19.5 9.75L19.5 6.75Q19.5 4.56019 18.5078 2.78139Q21.323 3.98849 23.6673 6.33274Q26.0115 8.67698 27.2186 11.4922Z" fill-rule="evenodd" transform="matrix(1 0 0 1 9 4.5)" fill="rgb(29, 78, 216)"/>
		</g>
	</g>
</svg>
