<?xml version="1.0" encoding="utf-8" ?>
<svg xmlns="http://www.w3.org/2000/svg" xmlns:xlink="http://www.w3.org/1999/xlink" width="24" height="24" viewBox="0 0 24 24">
	<path d="M0 0L24 0L24 24L0 24L0 0Z" fill-rule="nonzero" transform="matrix(1 0 0 1 0 0)" fill="rgb(29, 78, 216)"/>
	<defs>
		<clipPath id="clipPath0497482587">
			<path d="M0 0L24 0L24 24L0 24L0 0Z" fill-rule="nonzero" transform="matrix(1 0 0 1 0 0)"/>
		</clipPath>
	</defs>
	<g clip-path="url(#clipPath0497482587)">
		<defs>
			<clipPath id="clipPath1984960588">
				<path d="M0 0L24 0L24 24L0 24L0 0Z" fill-rule="nonzero" transform="matrix(1 0 0 1 -0 -0)"/>
			</clipPath>
		</defs>
		<g clip-path="url(#clipPath1984960588)">
			<path d="M17.2528 2.16059C17.3987 2.30694 17.4717 2.48344 17.4717 2.69009C17.4717 2.89674 17.3987 3.07324 17.2528 3.21959L15.6883 4.78559L12.6883 1.78559L14.2528 0.21959C14.3993 0.0731965 14.576 0 14.7831 0C14.9902 0 15.1669 0.0731965 15.3133 0.21959L17.2528 2.16059ZM14.6278 5.84459L11.6278 2.84459L1.40834 13.0656C1.36706 13.1069 1.33109 13.1523 1.30043 13.202C1.26977 13.2517 1.24524 13.3042 1.22684 13.3596L0.0193412 16.9806C-0.00299001 17.0479 -0.00598335 17.1161 0.0103612 17.1851C0.0267057 17.2541 0.059953 17.3137 0.110103 17.3638C0.160253 17.414 0.219834 17.4472 0.288847 17.4636C0.357861 17.4799 0.426026 17.4769 0.493341 17.4546L4.11434 16.2471C4.16966 16.2289 4.22216 16.2046 4.27182 16.1742C4.32149 16.1438 4.36699 16.1081 4.40834 16.0671L14.6278 5.84459Z" fill-rule="nonzero" transform="matrix(1 0 0 1 6.00016 0.74941)" fill="rgb(233, 239, 253)"/>
			<path d="M0 18.75C0 19.3713 0.21967 19.9016 0.65901 20.341C1.09835 20.7803 1.62868 21 2.25 21L18.75 21C19.3713 21 19.9016 20.7803 20.341 20.341C20.7803 19.9016 21 19.3713 21 18.75L21 9.75C21 9.54289 20.9268 9.36612 20.7803 9.21967C20.6339 9.07322 20.4571 9 20.25 9C20.0429 9 19.8661 9.07322 19.7197 9.21967C19.5732 9.36612 19.5 9.54289 19.5 9.75L19.5 18.75C19.5 18.9571 19.4268 19.1339 19.2803 19.2803C19.1339 19.4268 18.9571 19.5 18.75 19.5L2.25 19.5C2.04289 19.5 1.86612 19.4268 1.71967 19.2803C1.57322 19.1339 1.5 18.9571 1.5 18.75L1.5 2.25C1.5 2.04289 1.57322 1.86612 1.71967 1.71967C1.86612 1.57322 2.04289 1.5 2.25 1.5L12 1.5C12.2071 1.5 12.3839 1.42678 12.5303 1.28033C12.6768 1.13388 12.75 0.957107 12.75 0.75C12.75 0.542893 12.6768 0.366116 12.5303 0.21967C12.3839 0.0732233 12.2071 0 12 0L2.25 0C1.62868 0 1.09835 0.21967 0.65901 0.65901C0.21967 1.09835 0 1.62868 0 2.25L0 18.75Z" fill-rule="evenodd" transform="matrix(1 0 0 1 1.5 1.5)" fill="rgb(233, 239, 253)"/>
		</g>
	</g>
</svg>
