<?xml version="1.0" encoding="utf-8" ?>
<svg xmlns="http://www.w3.org/2000/svg" xmlns:xlink="http://www.w3.org/1999/xlink" width="24" height="24" viewBox="0 0 24 24">
	<defs>
		<clipPath id="clipPath3471067161">
			<path d="M0 0L24 0L24 24L0 24L0 0Z" fill-rule="nonzero" transform="matrix(1 0 0 1 0 0)"/>
		</clipPath>
	</defs>
	<g clip-path="url(#clipPath3471067161)">
		<defs>
			<clipPath id="clipPath2415291557">
				<path d="M0 0L24 0L24 24L0 24L0 0Z" fill-rule="nonzero" transform="matrix(1 0 0 1 -0 -0)"/>
			</clipPath>
		</defs>
		<g clip-path="url(#clipPath2415291557)">
			<path d="M21.75 3L12.75 3L9.75 0L2.25 0C1.00734 0 0 1.00734 0 2.25L0 15.75C0 16.9927 1.00734 18 2.25 18L21.75 18C22.9927 18 24 16.9927 24 15.75L24 5.25C24 4.00734 22.9927 3 21.75 3Z" fill-rule="nonzero" transform="matrix(1 0 0 1 0 3)" fill="rgb(29, 78, 216)"/>
		</g>
	</g>
</svg>
