<?xml version="1.0" encoding="utf-8" ?>
<svg xmlns="http://www.w3.org/2000/svg" xmlns:xlink="http://www.w3.org/1999/xlink" width="48" height="48" viewBox="0 0 48 48">
	<defs>
		<clipPath id="clipPath4107582477">
			<path d="M0 0L48 0L48 48L0 48L0 0Z" fill-rule="nonzero" transform="matrix(1 0 0 1 0 0)"/>
		</clipPath>
	</defs>
	<g clip-path="url(#clipPath4107582477)">
		<defs>
			<clipPath id="clipPath4558854702">
				<path d="M0 0L48 0L48 48L0 48L0 0Z" fill-rule="nonzero" transform="matrix(1 0 0 1 -0 -0)"/>
			</clipPath>
		</defs>
		<g clip-path="url(#clipPath4558854702)">
			<path d="M-1.34921 18.8438C-1.4458 19.042 -1.5 19.2647 -1.5 19.5C-1.5 19.5773 -1.49415 19.6532 -1.48288 19.7274Q-1.49977 19.9503 -1.5 20.1744L-1.5 28.5Q-1.5 30.9853 0.25736 32.7426Q2.01472 34.5 4.5 34.5L34.5 34.5Q36.9853 34.5 38.7426 32.7426Q40.5 30.9853 40.5 28.5L40.5 20.176Q40.5 19.9497 40.4831 19.7257C40.4942 19.6521 40.5 19.5767 40.5 19.5C40.5 19.265 40.446 19.0426 40.3496 18.8446Q40.2998 18.6272 40.2334 18.4119L35.4138 2.73521Q34.8325 0.847106 33.2439 -0.326269Q31.6553 -1.49964 29.6803 -1.5L9.322 -1.5Q7.34675 -1.49964 5.75812 -0.326269Q4.16948 0.847101 3.5884 2.73467L-1.23372 18.413Q-1.29954 18.6264 -1.34921 18.8438ZM1.5 21L1.5 28.5Q1.5 29.7426 2.37868 30.6213Q3.25736 31.5 4.5 31.5L34.5 31.5Q35.7426 31.5 36.6213 30.6213Q37.5 29.7426 37.5 28.5L37.5 21L31.2817 21Q30.4292 20.9998 29.7041 21.448Q28.9789 21.8961 28.5976 22.6588L28.0857 23.6827Q27.3234 25.2077 25.873 26.104Q24.4227 27.0003 22.718 27L16.2823 27Q14.5773 27.0003 13.127 26.104Q11.6766 25.2077 10.9144 23.6828L10.4023 22.6587Q10.0213 21.8965 9.29652 21.4483Q8.57174 21.0002 7.72 21L1.5 21ZM36.9682 18L31.2823 18Q29.5773 17.9997 28.127 18.896Q26.6766 19.7923 25.9144 21.3172L25.4023 22.3413Q25.0211 23.1039 24.2959 23.552Q23.5708 24.0002 22.718 24L16.2817 24Q15.4292 24.0002 14.7041 23.552Q13.9789 23.1039 13.5976 22.3412L13.0857 21.3173Q12.3237 19.7929 10.8742 18.8967Q9.42463 18.0004 7.72 18L2.03201 18L6.45561 3.61733Q6.74615 2.67355 7.54047 2.08687Q8.33479 1.50018 9.322 1.5L29.6797 1.5Q30.6672 1.50018 31.4615 2.08686Q32.2559 2.67355 32.5462 3.61679L36.9682 18Z" fill-rule="evenodd" transform="matrix(1 0 0 1 4.5 7.5)" fill="rgb(29, 78, 216)"/>
		</g>
	</g>
</svg>
