<?xml version="1.0" encoding="utf-8" ?>
<svg xmlns="http://www.w3.org/2000/svg" xmlns:xlink="http://www.w3.org/1999/xlink" width="32" height="32" viewBox="0 0 32 32">
	<defs>
		<clipPath id="clipPath3642069088">
			<path d="M0 0L32 0L32 32L0 32L0 0Z" fill-rule="nonzero" transform="matrix(1 0 0 1 -0 -0)"/>
		</clipPath>
	</defs>
	<g clip-path="url(#clipPath3642069088)">
		<path d="M1.04409 2.43464L12 0L22.9559 2.43464C23.566 2.57021 24 3.11129 24 3.73623L24 17.0519C24 19.7267 22.6632 22.2245 20.4376 23.7083L12 29.3333L3.5624 23.7083C1.33681 22.2245 0 19.7267 0 17.0519L0 3.73623C0 3.11129 0.43404 2.57021 1.04409 2.43464ZM2.66667 4.80579L2.66667 17.0519C2.66667 18.8351 3.55787 20.5003 5.0416 21.4895L12 26.1284L18.9584 21.4895C20.4421 20.5003 21.3333 18.8351 21.3333 17.0519L21.3333 4.80579L12 2.73172L2.66667 4.80579Z" fill-rule="nonzero" transform="matrix(1 0 0 1 4 1.33333)" fill="rgb(69, 178, 107)"/>
	</g>
</svg>
