<?xml version="1.0" encoding="utf-8" ?>
<svg xmlns="http://www.w3.org/2000/svg" xmlns:xlink="http://www.w3.org/1999/xlink" width="32" height="32" viewBox="0 0 32 32">
	<defs>
		<clipPath id="clipPath7787883592">
			<path d="M0 0L32 0L32 32L0 32L0 0Z" fill-rule="nonzero" transform="matrix(1 0 0 1 -0 -0)"/>
		</clipPath>
	</defs>
	<g clip-path="url(#clipPath7787883592)">
		<path d="M25.3334 0C26.0698 0 26.6667 0.59696 26.6667 1.33333L26.6667 8.66667C24.8258 8.66667 23.3334 10.1591 23.3334 12C23.3334 13.8409 24.8258 15.3333 26.6667 15.3333L26.6667 22.6667C26.6667 23.4031 26.0698 24 25.3334 24L1.33333 24C0.59696 24 0 23.4031 0 22.6667L0 15.3333C1.84095 15.3333 3.33333 13.8409 3.33333 12C3.33333 10.1591 1.84095 8.66667 0 8.66667L0 1.33333C0 0.59696 0.59696 0 1.33333 0L25.3334 0ZM24 2.66667L2.66667 2.66667L2.66667 6.624L2.87452 6.73211C4.65929 7.70807 5.89371 9.56467 5.99347 11.7176L6 12C6 14.2723 4.73689 16.2495 2.87452 17.2679L2.66667 17.3747L2.66667 21.3333L24 21.3333L24 17.3747L23.7922 17.2679C22.0074 16.292 20.773 14.4353 20.6732 12.2824L20.6667 12C20.6667 9.72773 21.9298 7.75049 23.7922 6.73211L24 6.624L24 2.66667ZM18.6667 8L18.6667 16L8 16L8 8L18.6667 8Z" fill-rule="nonzero" transform="matrix(1 0 0 1 2.67317 4)" fill="rgb(108, 92, 231)"/>
	</g>
</svg>
