<?xml version="1.0" encoding="utf-8" ?>
<svg xmlns="http://www.w3.org/2000/svg" xmlns:xlink="http://www.w3.org/1999/xlink" width="64" height="64" viewBox="0 0 64 64">
	<defs>
		<clipPath id="clipPath3765289259">
			<path d="M0 0L64 0L64 64L0 64L0 0Z" fill-rule="nonzero" transform="matrix(1 0 0 1 0 0)"/>
		</clipPath>
	</defs>
	<g clip-path="url(#clipPath3765289259)">
		<defs>
			<clipPath id="clipPath0359619252">
				<path d="M0 0L64 0L64 64L0 64L0 0Z" fill-rule="nonzero" transform="matrix(1 0 0 1 -0 -0)"/>
			</clipPath>
		</defs>
		<g clip-path="url(#clipPath0359619252)">
			<path d="M50.1668 41.6662L28.8631 2.10375C27.3531 -0.70125 23.3306 -0.70125 21.8193 2.10375L0.516825 41.6662C-0.199986 42.9976 -0.171161 44.3126 0.603301 45.6113C1.37776 46.9099 2.52102 47.5603 4.03307 47.5625L46.6443 47.5625C48.1578 47.5627 49.3026 46.9132 50.0787 45.6139C50.8549 44.3147 50.8843 42.9988 50.1668 41.6662ZM25.3418 41.4375C24.6515 41.4375 24.0622 41.1934 23.5741 40.7053C23.0859 40.2171 22.8418 39.6279 22.8418 38.9375C22.8418 38.2471 23.0859 37.6579 23.5741 37.1697C24.0622 36.6816 24.6515 36.4375 25.3418 36.4375C26.0322 36.4375 26.6214 36.6816 27.1096 37.1697C27.5977 37.6579 27.8418 38.2471 27.8418 38.9375C27.8418 39.6279 27.5977 40.2171 27.1096 40.7053C26.6214 41.1934 26.0322 41.4375 25.3418 41.4375ZM28.0568 16.2938L27.3393 31.5438C27.3393 32.096 27.1441 32.5674 26.7535 32.958C26.363 33.3485 25.8916 33.5437 25.3393 33.5438C24.787 33.5437 24.3156 33.3485 23.9251 32.958C23.5346 32.5674 23.3393 32.096 23.3393 31.5438L22.6218 16.3C22.5878 15.5322 22.8351 14.8694 23.3637 14.3116C23.8923 13.7537 24.5409 13.4711 25.3093 13.4638L25.3356 13.4638C26.1098 13.4634 26.7646 13.7428 27.3 14.3021C27.8354 14.8614 28.086 15.5278 28.0518 16.3013L28.0568 16.2938Z" fill-rule="nonzero" transform="matrix(1 0 0 1 5.96693 8.21875)" fill="rgb(29, 78, 216)"/>
		</g>
	</g>
</svg>
