<?xml version="1.0" encoding="utf-8" ?>
<svg xmlns="http://www.w3.org/2000/svg" xmlns:xlink="http://www.w3.org/1999/xlink" width="24" height="24" viewBox="0 0 24 24">
	<defs>
		<clipPath id="clipPath7888417533">
			<path d="M0 0L24 0L24 24L0 24L0 0Z" fill-rule="nonzero" transform="matrix(1 0 0 1 0 0)"/>
		</clipPath>
	</defs>
	<g clip-path="url(#clipPath7888417533)">
		<defs>
			<clipPath id="clipPath7948015265">
				<path d="M0 0L24 0L24 24L0 24L0 0Z" fill-rule="nonzero" transform="matrix(1 0 0 1 -0 -0)"/>
			</clipPath>
		</defs>
		<g clip-path="url(#clipPath7948015265)">
			<path d="M10.5 6.375L10.5 0L1.125 0C0.501562 0 0 0.501562 0 1.125L0 22.875C0 23.4984 0.501562 24 1.125 24L16.875 24C17.4984 24 18 23.4984 18 22.875L18 7.5L11.625 7.5C11.0063 7.5 10.5 6.99375 10.5 6.375ZM13.1766 12L14.2969 12C14.6578 12 14.925 12.3328 14.8453 12.6891L13.0641 20.5641C13.0078 20.8219 12.7781 21 12.5156 21L10.7344 21C10.4766 21 10.2516 20.8219 10.1906 20.5734C8.98125 15.7219 9.21562 16.7672 8.99062 15.3937L8.96719 15.3937C8.91562 16.0641 8.85469 16.2094 7.76719 20.5734C7.70625 20.8219 7.48125 21 7.22344 21L5.48438 21C5.22188 21 4.99219 20.8172 4.93594 20.5594L3.16406 12.6844C3.08438 12.3328 3.35156 12 3.7125 12L4.86094 12C5.12812 12 5.3625 12.1875 5.41406 12.4547C6.14531 16.1109 6.35625 17.5875 6.39844 18.1828C6.47344 17.7047 6.74063 16.65 7.77656 12.4313C7.8375 12.1781 8.0625 12.0047 8.325 12.0047L9.68906 12.0047C9.95156 12.0047 10.1766 12.1828 10.2375 12.4359C11.3625 17.1422 11.5875 18.2484 11.625 18.5016C11.6156 17.9766 11.5031 17.6672 12.6375 12.4453C12.6844 12.1828 12.9141 12 13.1766 12ZM18 5.71406L18 6L12 6L12 0L12.2859 0C12.5859 0 12.8719 0.117188 13.0828 0.328125L17.6719 4.92188C17.8828 5.13281 18 5.41875 18 5.71406Z" fill-rule="nonzero" transform="matrix(1 0 0 1 3 0)" fill="rgb(29, 78, 216)"/>
		</g>
	</g>
</svg>
